<?xml version="1.0" encoding="iso-8859-1"?>
<!-- Generator: Adobe Illustrator 21.0.0, SVG Export Plug-In . SVG Version: 6.00 Build 0)  -->
<svg xmlns="http://www.w3.org/2000/svg" xmlns:xlink="http://www.w3.org/1999/xlink" version="1.1" id="Capa_1" x="0px" y="0px" viewBox="0 0 497 497" style="enable-background:new 0 0 497 497;" xml:space="preserve" width="512" height="512">
<g>
	<rect x="99.399" y="308.417" style="fill:#BF8636;" width="33.134" height="54.901"/>
	<rect x="265.065" y="308.417" style="fill:#BF8636;" width="33.134" height="54.901"/>
	<path style="fill:#D2DCF1;" d="M430.733,147.208v4.568c0,3.314-2.686,6-6,6l-27.132,0c-9.148,0-16.564-7.416-16.564-16.564   l-0.002-8.287c0-36.598-29.668-66.266-66.266-66.266H24.85C11.126,66.658,0,77.784,0,91.508v198.8   c0,13.724,11.126,24.85,24.85,24.85h289.919c36.598,0,66.266-29.668,66.266-66.266l0.002-8.287c0-9.148,7.416-16.564,16.564-16.564   l27.13-0.008c3.314-0.001,6.002,2.686,6.002,6v4.576c0,3.314,2.686,6,6,6h21.134c3.314,0,6-2.686,6-6v-87.401c0-3.314-2.686-6-6-6   h-21.134C433.419,141.208,430.733,143.894,430.733,147.208z"/>
	<g>
		<path style="fill:#464656;" d="M182.232,92.291c-4.142,0-7.5,3.357-7.5,7.5v140.817c0,4.143,3.358,7.5,7.5,7.5    c4.142,0,7.5-3.357,7.5-7.5V99.791C189.732,95.649,186.374,92.291,182.232,92.291z"/>
		<path style="fill:#464656;" d="M273.351,117.141c-4.143,0-7.5,3.357-7.5,7.5v99.4c0,4.143,3.357,7.5,7.5,7.5s7.5-3.357,7.5-7.5    v-99.4C280.851,120.498,277.493,117.141,273.351,117.141z"/>
		<path style="fill:#464656;" d="M82.832,100.576c-4.142,0-7.5,3.357-7.5,7.5v57.983c0,4.143,3.358,7.5,7.5,7.5    c4.142,0,7.5-3.357,7.5-7.5v-57.983C90.332,103.933,86.974,100.576,82.832,100.576z"/>
	</g>
	<path style="fill:#D6A042;" d="M455,224.041h36c3.314,0,6-2.686,6-6v-54.266c0-3.314-2.686-6-6-6h-36V224.041z"/>
	<path style="fill:#464656;" d="M339.614,389.71l-7.147-28.589c-0.668-2.671-3.068-4.545-5.821-4.545H70.95   c-2.753,0-5.153,1.874-5.821,4.545L57.98,389.71v16.566h281.634V389.71z"/>
	<path style="fill:#3B3B47;" d="M332.467,361.121c-0.668-2.671-3.068-4.545-5.821-4.545h-20c2.753,0,5.153,1.874,5.821,4.545   l7.147,28.589v16.566h20V389.71L332.467,361.121z"/>
	<polygon style="fill:#D6A042;" points="281.634,282.023 323.05,224.041 240.215,224.042 215.366,240.606 149.099,240.606    132.532,207.475 49.7,207.475 74.549,282.025  "/>
	<g>
		<path style="fill:#BF8636;" d="M149.099,240.606l-16.566-33.132h-20l14.908,29.815c1.016,2.033,3.094,3.317,5.366,3.317H149.099z"/>
		<polygon style="fill:#BF8636;" points="303.05,224.041 261.634,282.023 74.549,282.025 74.549,282.025 281.634,282.023     323.05,224.041   "/>
	</g>
	<rect x="57.983" y="166.057" style="fill:#D6A042;" width="57.984" height="43.694"/>
	<rect x="95.967" y="166.058" style="fill:#BF8636;" width="20" height="43.692"/>
	<path style="fill:#FFDD5F;" d="M331.333,216.54h-91.117c-1.48,0-2.928,0.439-4.16,1.26l-22.961,15.307h-59.361L139.24,204.12   c-1.27-2.541-3.867-4.145-6.708-4.145H41.416c-4.142,0-7.5,3.357-7.5,7.5c0,4.143,3.358,7.5,7.5,7.5h86.481l14.494,28.986   c1.271,2.541,3.867,4.146,6.708,4.146h66.267c1.481,0,2.928-0.438,4.16-1.26l22.961-15.307h88.846c4.143,0,7.5-3.357,7.5-7.5   C338.833,219.898,335.476,216.54,331.333,216.54z"/>
	<g>
		<path style="fill:#FFDD5F;" d="M124.251,158.558H49.7c-4.142,0-7.5,3.357-7.5,7.5c0,4.143,3.358,7.5,7.5,7.5h74.551    c4.142,0,7.5-3.357,7.5-7.5C131.751,161.915,128.393,158.558,124.251,158.558z"/>
		<path style="fill:#FFDD5F;" d="M165.667,132.142h33.132c4.142,0,7.5-3.357,7.5-7.5s-3.358-7.5-7.5-7.5h-33.132    c-4.142,0-7.5,3.357-7.5,7.5S161.524,132.142,165.667,132.142z"/>
		<path style="fill:#FFDD5F;" d="M289.917,141.993h-33.133c-4.143,0-7.5,3.357-7.5,7.5c0,4.143,3.357,7.5,7.5,7.5h33.133    c4.143,0,7.5-3.357,7.5-7.5C297.417,145.35,294.06,141.993,289.917,141.993z"/>
		<path style="fill:#FFDD5F;" d="M66.266,140.427h33.132c4.142,0,7.5-3.357,7.5-7.5c0-4.143-3.358-7.5-7.5-7.5H66.266    c-4.142,0-7.5,3.357-7.5,7.5C58.766,137.07,62.124,140.427,66.266,140.427z"/>
		<path style="fill:#FFDD5F;" d="M215.366,141.993h-66.268c-4.142,0-7.5,3.357-7.5,7.5c0,4.143,3.358,7.5,7.5,7.5h66.268    c4.142,0,7.5-3.357,7.5-7.5C222.866,145.35,219.508,141.993,215.366,141.993z"/>
	</g>
	<path style="fill:#BF8636;" d="M491,157.775h-20c3.314,0,6,2.686,6,6v54.266c0,3.314-2.686,6-6,6h20c3.314,0,6-2.686,6-6v-54.266   C497,160.461,494.314,157.775,491,157.775z"/>
	<g>
		<path style="fill:#B5C3EB;" d="M457.867,141.208h-20c3.314,0,6,2.686,6,6v87.401c0,3.314-2.686,6-6,6h20c3.314,0,6-2.686,6-6    v-87.401C463.867,143.894,461.181,141.208,457.867,141.208z"/>
		<path style="fill:#B5C3EB;" d="M361.035,132.924l0.002,8.287c0,9.148,7.416,16.564,16.564,16.564l19.997,0    c-9.147-0.001-16.561-7.417-16.561-16.564l-0.002-8.287c0-36.598-29.668-66.266-66.266-66.266h-20    C331.367,66.658,361.035,96.326,361.035,132.924z"/>
		<path style="fill:#B5C3EB;" d="M404.731,224.033l-27.13,0.008c-9.148,0-16.564,7.416-16.564,16.564l-0.002,8.287    c0,36.598-29.668,66.266-66.266,66.266h20c36.598,0,66.266-29.668,66.266-66.266l0.002-8.287c0-9.148,7.416-16.564,16.564-16.564    l7.248-0.002C404.809,224.038,404.771,224.033,404.731,224.033z"/>
	</g>
	<rect x="403.167" y="157.775" style="fill:#B5C3EB;" width="20" height="66.257"/>
	<path style="fill:#6BA9DE;" d="M314.768,274.523H49.7c-4.142,0-7.5,3.357-7.5,7.5c0,4.142,3.358,7.5,7.5,7.5h265.068   c4.143,0,7.5-3.358,7.5-7.5C322.268,277.88,318.91,274.523,314.768,274.523z"/>
	<path style="fill:#FFDD5F;" d="M358.469,389.71H39.133c-3.314,0-6,2.686-6,6v27.132h331.336V395.71   C364.469,392.396,361.782,389.71,358.469,389.71z"/>
	<path style="fill:#FFBC47;" d="M358.469,389.71h-20c3.314,0,6,2.686,6,6v27.132h20V395.71   C364.469,392.396,361.782,389.71,358.469,389.71z"/>
	<path style="fill:#FFBC47;" d="M372.753,415.342H24.849c-4.142,0-7.5,3.357-7.5,7.5s3.358,7.5,7.5,7.5h347.904   c4.143,0,7.5-3.357,7.5-7.5S376.896,415.342,372.753,415.342z"/>
</g>















</svg>
